# xmcd
#
# Track frame offsets: 
#        150
#        21200
#        49895
#        63757
#        84018
#        104240
#        116482
#        141475
#        160914
#        176450
#
# Disc length: 2588 seconds
#
# Revision: 0
# Processed by: cddbd v1.5.2PL0 Copyright (c) Steve Scherf et al.
# Submitted via: ExactAudioCopy v1.0b3
#
DISCID=820a1a0a
DTITLE=Various Artist - Ngay Xuan Vui Cuoi
DYEAR=2002
DGENRE=
TTITLE0=Hien Thuc, Chi Khanh - Hai trai tim vang
TTITLE1=Elvis Phuong - Em da thay mua Xuan
TTITLE2=nhom 1088 - Mung nang Xuan ve
TTITLE3=nhom Ngau Nhien - Xuan yeu thuong
TTITLE4=Tuan Ngoc - Tieng duong cam
TTITLE5=nhom The Bells - Hao hoa
TTITLE6=Henry Chuc, Dalena - Ngay Xuan vui cuoi
TTITLE7=Hoang Nam, Thanh Van - Xuan va tuoi tre
TTITLE8=nhom MTV - Dang Xuan
TTITLE9=nhom Mat Ngoc - Mua Xuan sang
EXTD=
EXTT0=
EXTT1=
EXTT2=
EXTT3=
EXTT4=
EXTT5=
EXTT6=
EXTT7=
EXTT8=
EXTT9=
PLAYORDER=
